<?xml version="1.0" encoding="UTF-8"?>
<svg xmlns="http://www.w3.org/2000/svg" viewBox="0 0 1024 1024">
<g fill="#D4AF37">
<path d="M 481,795 L 482,796 L 481,797 L 482,796 Z"/><path d="M 758,451 L 662,438 L 530,460 L 674,462 L 646,474 L 625,511 L 633,581 L 673,662 L 653,687 L 590,604 L 579,519 L 569,547 L 563,616 L 633,710 L 606,738 L 497,604 L 501,524 L 472,577 L 466,619 L 582,765 L 543,799 L 388,640 L 414,535 L 479,440 L 440,464 L 376,528 L 351,653 L 437,751 L 541,847 L 637,763 L 711,670 L 666,582 L 656,523 L 690,481 L 773,472 Z"/><path d="M 817,419 L 816,420 L 817,421 L 816,420 Z"/><path d="M 427,382 L 416,387 L 386,411 L 341,456 L 340,460 L 328,472 L 328,475 L 324,477 L 324,480 L 297,518 L 272,563 L 258,597 L 246,639 L 243,673 L 247,671 L 249,661 L 277,603 L 311,544 L 318,537 L 317,535 L 319,535 L 329,516 L 363,466 L 366,465 L 375,449 L 387,433 L 391,431 L 390,429 L 418,393 L 422,391 Z"/><path d="M 502,313 L 502,319 L 506,327 L 518,341 L 517,342 L 518,341 L 528,350 L 527,351 L 529,350 L 534,354 L 547,361 L 549,361 L 552,363 L 556,363 L 560,365 L 574,365 L 584,362 L 592,358 L 598,353 L 599,354 L 598,353 L 603,348 L 608,339 L 607,333 L 603,332 L 594,337 L 592,336 L 593,337 L 585,341 L 577,340 L 569,332 L 562,321 L 560,316 L 553,310 L 549,310 L 547,311 L 545,314 L 545,319 L 544,320 L 545,321 L 545,327 L 547,332 L 547,336 L 546,337 L 545,336 L 543,338 L 540,338 L 534,336 L 526,330 L 511,311 L 505,310 L 503,311 Z"/><path d="M 668,312 L 630,270 L 583,256 L 487,240 L 345,240 L 288,295 L 216,386 L 157,474 L 160,495 L 175,514 L 259,384 L 361,269 L 479,275 L 444,292 L 378,298 L 296,392 L 192,565 L 213,598 L 287,464 L 394,327 L 456,324 L 511,284 L 636,322 Z"/><path d="M 474,213 L 475,214 L 476,213 L 475,214 Z"/><path d="M 142,376 L 181,378 L 249,290 L 328,213 L 477,211 L 558,221 L 642,244 L 690,301 L 798,350 L 812,370 L 820,407 L 815,432 L 783,367 L 687,322 L 635,372 L 558,424 L 695,423 L 762,436 L 795,464 L 804,513 L 831,475 L 848,429 L 845,391 L 823,346 L 796,324 L 728,291 L 671,226 L 582,192 L 480,179 L 311,183 L 232,256 Z"/>
</g>
</svg>
